<svg xmlns="http://www.w3.org/2000/svg" xmlns:xlink="http://www.w3.org/1999/xlink" width="500" zoomAndPan="magnify" viewBox="50 100 260 140" height="300" preserveAspectRatio="xMidYMid meet" version="1.0"><defs><g/><clipPath id="dc889c4033"><path d="M 62 118 L 125 118 L 125 219 L 62 219 Z M 62 118 " clip-rule="nonzero"/></clipPath><clipPath id="2aa7eb7372"><path d="M 66.664062 219.34375 L 44.164062 139.972656 L 123.535156 117.46875 L 146.035156 196.839844 Z M 66.664062 219.34375 " clip-rule="nonzero"/></clipPath><clipPath id="428ee4e3c1"><path d="M 66.664062 219.34375 L 44.164062 139.972656 L 123.535156 117.46875 L 146.035156 196.839844 Z M 66.664062 219.34375 " clip-rule="nonzero"/></clipPath><clipPath id="14674a26bc"><path d="M 101 128 L 129 128 L 129 197 L 101 197 Z M 101 128 " clip-rule="nonzero"/></clipPath><clipPath id="86679977d9"><path d="M 88.796875 134.085938 L 105.109375 128.480469 L 128.496094 196.578125 L 112.183594 202.179688 Z M 88.796875 134.085938 " clip-rule="nonzero"/></clipPath><clipPath id="a492923ed5"><path d="M 88.796875 134.085938 L 105.109375 128.480469 L 128.496094 196.578125 L 112.183594 202.179688 Z M 88.796875 134.085938 " clip-rule="nonzero"/></clipPath><clipPath id="1c1f9307fe"><path d="M 63.539062 195 L 146 195 L 146 230.09375 L 63.539062 230.09375 Z M 63.539062 195 " clip-rule="nonzero"/></clipPath><clipPath id="c0724c83f3"><path d="M 124 134 L 152 134 L 152 226 L 124 226 Z M 124 134 " clip-rule="nonzero"/></clipPath><clipPath id="6d99278b85"><path d="M 130.746094 129.609375 L 151.980469 134.316406 L 131.863281 225.113281 L 110.628906 220.410156 Z M 130.746094 129.609375 " clip-rule="nonzero"/></clipPath><clipPath id="c6465d4263"><path d="M 130.746094 129.609375 L 151.980469 134.316406 L 131.863281 225.113281 L 110.628906 220.410156 Z M 130.746094 129.609375 " clip-rule="nonzero"/></clipPath><clipPath id="e299bc0744"><path d="M 120.121094 144.074219 L 136.789062 144.074219 L 136.789062 160.742188 L 120.121094 160.742188 Z M 120.121094 144.074219 " clip-rule="nonzero"/></clipPath><clipPath id="c245ca4fd2"><path d="M 128.453125 144.074219 C 123.851562 144.074219 120.121094 147.804688 120.121094 152.410156 C 120.121094 157.011719 123.851562 160.742188 128.453125 160.742188 C 133.054688 160.742188 136.789062 157.011719 136.789062 152.410156 C 136.789062 147.804688 133.054688 144.074219 128.453125 144.074219 Z M 128.453125 144.074219 " clip-rule="nonzero"/></clipPath><clipPath id="9ab818feec"><path d="M 110.632812 109.378906 L 135.136719 109.378906 L 135.136719 133.882812 L 110.632812 133.882812 Z M 110.632812 109.378906 " clip-rule="nonzero"/></clipPath><clipPath id="9d96330624"><path d="M 122.886719 109.378906 C 116.117188 109.378906 110.632812 114.867188 110.632812 121.632812 C 110.632812 128.398438 116.117188 133.882812 122.886719 133.882812 C 129.652344 133.882812 135.136719 128.398438 135.136719 121.632812 C 135.136719 114.867188 129.652344 109.378906 122.886719 109.378906 Z M 122.886719 109.378906 " clip-rule="nonzero"/></clipPath></defs><g fill="#000b3b" fill-opacity="1"><g transform="translate(166.86241, 173.415106)"><g><path d="M 21.34375 -0.734375 C 21.007812 -0.410156 20.535156 -0.160156 19.921875 0.015625 C 19.316406 0.191406 18.582031 0.28125 17.71875 0.28125 C 16.863281 0.28125 16.050781 0.15625 15.28125 -0.09375 C 14.519531 -0.351562 13.894531 -0.972656 13.40625 -1.953125 L 9.96875 -8.96875 C 9.625 -9.6875 9.3125 -10.363281 9.03125 -11 C 8.757812 -11.632812 8.457031 -12.367188 8.125 -13.203125 L 7.921875 -13.171875 C 8.015625 -11.921875 8.066406 -10.644531 8.078125 -9.34375 C 8.085938 -8.050781 8.09375 -6.78125 8.09375 -5.53125 L 8.09375 -0.140625 C 7.84375 -0.0664062 7.457031 0 6.9375 0.0625 C 6.414062 0.132812 5.898438 0.171875 5.390625 0.171875 C 4.878906 0.171875 4.425781 0.132812 4.03125 0.0625 C 3.632812 0 3.304688 -0.132812 3.046875 -0.34375 C 2.796875 -0.550781 2.601562 -0.832031 2.46875 -1.1875 C 2.332031 -1.550781 2.265625 -2.023438 2.265625 -2.609375 L 2.265625 -19.984375 C 2.585938 -20.441406 3.082031 -20.785156 3.75 -21.015625 C 4.425781 -21.253906 5.144531 -21.375 5.90625 -21.375 C 6.757812 -21.375 7.570312 -21.238281 8.34375 -20.96875 C 9.125 -20.707031 9.75 -20.097656 10.21875 -19.140625 L 13.6875 -12.125 C 14.039062 -11.40625 14.351562 -10.726562 14.625 -10.09375 C 14.90625 -9.457031 15.207031 -8.722656 15.53125 -7.890625 L 15.703125 -7.921875 C 15.609375 -9.171875 15.550781 -10.421875 15.53125 -11.671875 C 15.507812 -12.921875 15.5 -14.171875 15.5 -15.421875 L 15.5 -21.0625 C 15.75 -21.125 16.132812 -21.191406 16.65625 -21.265625 C 17.175781 -21.335938 17.691406 -21.375 18.203125 -21.375 C 19.222656 -21.375 20 -21.191406 20.53125 -20.828125 C 21.070312 -20.472656 21.34375 -19.726562 21.34375 -18.59375 Z M 21.34375 -0.734375 "/></g></g></g><g fill="#000b3b" fill-opacity="1"><g transform="translate(197.404853, 173.415106)"><g><path d="M 20.921875 -7.78125 C 20.921875 -6.53125 20.707031 -5.390625 20.28125 -4.359375 C 19.851562 -3.328125 19.234375 -2.445312 18.421875 -1.71875 C 17.609375 -0.988281 16.617188 -0.425781 15.453125 -0.03125 C 14.296875 0.363281 12.988281 0.5625 11.53125 0.5625 C 10.070312 0.5625 8.765625 0.363281 7.609375 -0.03125 C 6.453125 -0.425781 5.46875 -0.988281 4.65625 -1.71875 C 3.84375 -2.445312 3.222656 -3.328125 2.796875 -4.359375 C 2.367188 -5.390625 2.15625 -6.53125 2.15625 -7.78125 L 2.15625 -21.0625 C 2.40625 -21.101562 2.804688 -21.164062 3.359375 -21.25 C 3.921875 -21.332031 4.457031 -21.375 4.96875 -21.375 C 5.5 -21.375 5.96875 -21.332031 6.375 -21.25 C 6.78125 -21.164062 7.117188 -21.019531 7.390625 -20.8125 C 7.671875 -20.601562 7.878906 -20.3125 8.015625 -19.9375 C 8.160156 -19.570312 8.234375 -19.085938 8.234375 -18.484375 L 8.234375 -7.890625 C 8.234375 -6.773438 8.539062 -5.90625 9.15625 -5.28125 C 9.769531 -4.65625 10.5625 -4.34375 11.53125 -4.34375 C 12.53125 -4.34375 13.332031 -4.65625 13.9375 -5.28125 C 14.539062 -5.90625 14.84375 -6.773438 14.84375 -7.890625 L 14.84375 -21.0625 C 15.09375 -21.101562 15.492188 -21.164062 16.046875 -21.25 C 16.609375 -21.332031 17.144531 -21.375 17.65625 -21.375 C 18.1875 -21.375 18.65625 -21.332031 19.0625 -21.25 C 19.46875 -21.164062 19.804688 -21.019531 20.078125 -20.8125 C 20.359375 -20.601562 20.566406 -20.3125 20.703125 -19.9375 C 20.847656 -19.570312 20.921875 -19.085938 20.921875 -18.484375 Z M 20.921875 -7.78125 "/></g></g></g><g fill="#000b3b" fill-opacity="1"><g transform="translate(227.426108, 173.415106)"><g><path d="M 1.28125 -16.1875 C 1.125 -16.445312 0.972656 -16.796875 0.828125 -17.234375 C 0.691406 -17.671875 0.625 -18.132812 0.625 -18.625 C 0.625 -19.53125 0.828125 -20.175781 1.234375 -20.5625 C 1.640625 -20.957031 2.164062 -21.15625 2.8125 -21.15625 L 17.96875 -21.15625 C 18.125 -20.90625 18.269531 -20.554688 18.40625 -20.109375 C 18.550781 -19.671875 18.625 -19.210938 18.625 -18.734375 C 18.625 -17.828125 18.421875 -17.175781 18.015625 -16.78125 C 17.609375 -16.382812 17.082031 -16.1875 16.4375 -16.1875 L 12.578125 -16.1875 L 12.578125 -0.140625 C 12.328125 -0.0664062 11.925781 0 11.375 0.0625 C 10.832031 0.132812 10.296875 0.171875 9.765625 0.171875 C 9.234375 0.171875 8.765625 0.128906 8.359375 0.046875 C 7.953125 -0.0234375 7.609375 -0.164062 7.328125 -0.375 C 7.054688 -0.582031 6.847656 -0.875 6.703125 -1.25 C 6.566406 -1.625 6.5 -2.109375 6.5 -2.703125 L 6.5 -16.1875 Z M 1.28125 -16.1875 "/></g></g></g><g fill="#000b3b" fill-opacity="1"><g transform="translate(253.694789, 173.415106)"><g><path d="M 8.3125 -6.8125 L 8.3125 -0.140625 C 8.050781 -0.0664062 7.648438 0 7.109375 0.0625 C 6.566406 0.132812 6.023438 0.171875 5.484375 0.171875 C 4.953125 0.171875 4.484375 0.128906 4.078125 0.046875 C 3.671875 -0.0234375 3.332031 -0.164062 3.0625 -0.375 C 2.800781 -0.582031 2.601562 -0.875 2.46875 -1.25 C 2.332031 -1.625 2.265625 -2.109375 2.265625 -2.703125 L 2.265625 -19.078125 C 2.265625 -19.566406 2.394531 -19.941406 2.65625 -20.203125 C 2.925781 -20.472656 3.289062 -20.6875 3.75 -20.84375 C 4.539062 -21.125 5.457031 -21.328125 6.5 -21.453125 C 7.539062 -21.585938 8.648438 -21.65625 9.828125 -21.65625 C 13.023438 -21.65625 15.4375 -20.984375 17.0625 -19.640625 C 18.6875 -18.296875 19.5 -16.472656 19.5 -14.171875 C 19.5 -12.742188 19.125 -11.519531 18.375 -10.5 C 17.632812 -9.476562 16.753906 -8.6875 15.734375 -8.125 C 16.578125 -6.988281 17.398438 -5.921875 18.203125 -4.921875 C 19.015625 -3.929688 19.65625 -3.03125 20.125 -2.21875 C 19.882812 -1.40625 19.457031 -0.785156 18.84375 -0.359375 C 18.238281 0.0664062 17.550781 0.28125 16.78125 0.28125 C 16.269531 0.28125 15.828125 0.222656 15.453125 0.109375 C 15.085938 -0.00390625 14.765625 -0.164062 14.484375 -0.375 C 14.210938 -0.582031 13.957031 -0.835938 13.71875 -1.140625 C 13.488281 -1.441406 13.269531 -1.769531 13.0625 -2.125 L 10.140625 -6.8125 Z M 10.5 -11.4375 C 11.375 -11.4375 12.066406 -11.660156 12.578125 -12.109375 C 13.085938 -12.554688 13.34375 -13.222656 13.34375 -14.109375 C 13.34375 -14.984375 13.054688 -15.644531 12.484375 -16.09375 C 11.921875 -16.550781 11.023438 -16.78125 9.796875 -16.78125 C 9.453125 -16.78125 9.175781 -16.769531 8.96875 -16.75 C 8.757812 -16.726562 8.523438 -16.691406 8.265625 -16.640625 L 8.265625 -11.4375 Z M 10.5 -11.4375 "/></g></g></g><g fill="#000b3b" fill-opacity="1"><g transform="translate(281.805007, 173.415106)"><g><path d="M 8.34375 -0.140625 C 8.082031 -0.0664062 7.679688 0 7.140625 0.0625 C 6.597656 0.132812 6.0625 0.171875 5.53125 0.171875 C 4.988281 0.171875 4.515625 0.128906 4.109375 0.046875 C 3.710938 -0.0234375 3.375 -0.164062 3.09375 -0.375 C 2.8125 -0.582031 2.601562 -0.875 2.46875 -1.25 C 2.332031 -1.625 2.265625 -2.109375 2.265625 -2.703125 L 2.265625 -21.0625 C 2.515625 -21.101562 2.914062 -21.164062 3.46875 -21.25 C 4.03125 -21.332031 4.566406 -21.375 5.078125 -21.375 C 5.609375 -21.375 6.078125 -21.332031 6.484375 -21.25 C 6.890625 -21.164062 7.226562 -21.019531 7.5 -20.8125 C 7.78125 -20.601562 7.988281 -20.3125 8.125 -19.9375 C 8.269531 -19.570312 8.34375 -19.085938 8.34375 -18.484375 Z M 8.34375 -0.140625 "/></g></g></g><g fill="#004aad" fill-opacity="1"><g transform="translate(160.674911, 198.165105)"><g><path d="M 13.3125 -0.140625 C 13.050781 -0.0664062 12.65625 0 12.125 0.0625 C 11.59375 0.132812 11.070312 0.171875 10.5625 0.171875 C 9.5 0.171875 8.695312 -0.00390625 8.15625 -0.359375 C 7.625 -0.722656 7.359375 -1.484375 7.359375 -2.640625 L 7.359375 -7.328125 C 6.785156 -8.191406 6.160156 -9.144531 5.484375 -10.1875 C 4.816406 -11.226562 4.15625 -12.289062 3.5 -13.375 C 2.851562 -14.46875 2.253906 -15.539062 1.703125 -16.59375 C 1.148438 -17.644531 0.695312 -18.613281 0.34375 -19.5 C 0.644531 -19.914062 1.054688 -20.296875 1.578125 -20.640625 C 2.097656 -20.984375 2.742188 -21.15625 3.515625 -21.15625 C 4.410156 -21.15625 5.140625 -20.96875 5.703125 -20.59375 C 6.273438 -20.226562 6.816406 -19.535156 7.328125 -18.515625 L 10.21875 -12.71875 L 10.421875 -12.71875 C 10.742188 -13.4375 11.023438 -14.085938 11.265625 -14.671875 C 11.515625 -15.265625 11.753906 -15.859375 11.984375 -16.453125 C 12.222656 -17.046875 12.46875 -17.660156 12.71875 -18.296875 C 12.96875 -18.929688 13.257812 -19.664062 13.59375 -20.5 C 14.007812 -20.707031 14.46875 -20.867188 14.96875 -20.984375 C 15.476562 -21.097656 15.96875 -21.15625 16.4375 -21.15625 C 17.25 -21.15625 17.9375 -20.941406 18.5 -20.515625 C 19.070312 -20.085938 19.359375 -19.445312 19.359375 -18.59375 C 19.359375 -18.3125 19.300781 -17.972656 19.1875 -17.578125 C 19.070312 -17.191406 18.800781 -16.597656 18.375 -15.796875 C 17.957031 -14.992188 17.347656 -13.910156 16.546875 -12.546875 C 15.753906 -11.179688 14.675781 -9.394531 13.3125 -7.1875 Z M 13.3125 -0.140625 "/></g></g></g><g fill="#000b3b" fill-opacity="1"><g transform="translate(187.56944, 198.165105)"><g><path d="M 1.21875 -10.5625 C 1.21875 -12.375 1.5 -13.972656 2.0625 -15.359375 C 2.632812 -16.742188 3.410156 -17.90625 4.390625 -18.84375 C 5.378906 -19.789062 6.539062 -20.503906 7.875 -20.984375 C 9.207031 -21.472656 10.648438 -21.71875 12.203125 -21.71875 C 13.753906 -21.71875 15.191406 -21.472656 16.515625 -20.984375 C 17.847656 -20.503906 19.015625 -19.789062 20.015625 -18.84375 C 21.015625 -17.90625 21.796875 -16.742188 22.359375 -15.359375 C 22.929688 -13.972656 23.21875 -12.375 23.21875 -10.5625 C 23.21875 -8.757812 22.9375 -7.15625 22.375 -5.75 C 21.820312 -4.351562 21.050781 -3.179688 20.0625 -2.234375 C 19.082031 -1.296875 17.921875 -0.582031 16.578125 -0.09375 C 15.234375 0.382812 13.773438 0.625 12.203125 0.625 C 10.617188 0.625 9.15625 0.375 7.8125 -0.125 C 6.46875 -0.625 5.3125 -1.347656 4.34375 -2.296875 C 3.375 -3.242188 2.609375 -4.410156 2.046875 -5.796875 C 1.492188 -7.191406 1.21875 -8.78125 1.21875 -10.5625 Z M 7.46875 -10.5625 C 7.46875 -8.457031 7.894531 -6.882812 8.75 -5.84375 C 9.613281 -4.800781 10.765625 -4.28125 12.203125 -4.28125 C 13.660156 -4.28125 14.816406 -4.800781 15.671875 -5.84375 C 16.523438 -6.882812 16.953125 -8.457031 16.953125 -10.5625 C 16.953125 -12.644531 16.53125 -14.207031 15.6875 -15.25 C 14.84375 -16.289062 13.691406 -16.8125 12.234375 -16.8125 C 10.796875 -16.8125 9.640625 -16.296875 8.765625 -15.265625 C 7.898438 -14.234375 7.46875 -12.664062 7.46875 -10.5625 Z M 7.46875 -10.5625 "/></g></g></g><g fill="#000b3b" fill-opacity="1"><g transform="translate(218.94579, 198.165105)"><g><path d="M 20.921875 -7.78125 C 20.921875 -6.53125 20.707031 -5.390625 20.28125 -4.359375 C 19.851562 -3.328125 19.234375 -2.445312 18.421875 -1.71875 C 17.609375 -0.988281 16.617188 -0.425781 15.453125 -0.03125 C 14.296875 0.363281 12.988281 0.5625 11.53125 0.5625 C 10.070312 0.5625 8.765625 0.363281 7.609375 -0.03125 C 6.453125 -0.425781 5.46875 -0.988281 4.65625 -1.71875 C 3.84375 -2.445312 3.222656 -3.328125 2.796875 -4.359375 C 2.367188 -5.390625 2.15625 -6.53125 2.15625 -7.78125 L 2.15625 -21.0625 C 2.40625 -21.101562 2.804688 -21.164062 3.359375 -21.25 C 3.921875 -21.332031 4.457031 -21.375 4.96875 -21.375 C 5.5 -21.375 5.96875 -21.332031 6.375 -21.25 C 6.78125 -21.164062 7.117188 -21.019531 7.390625 -20.8125 C 7.671875 -20.601562 7.878906 -20.3125 8.015625 -19.9375 C 8.160156 -19.570312 8.234375 -19.085938 8.234375 -18.484375 L 8.234375 -7.890625 C 8.234375 -6.773438 8.539062 -5.90625 9.15625 -5.28125 C 9.769531 -4.65625 10.5625 -4.34375 11.53125 -4.34375 C 12.53125 -4.34375 13.332031 -4.65625 13.9375 -5.28125 C 14.539062 -5.90625 14.84375 -6.773438 14.84375 -7.890625 L 14.84375 -21.0625 C 15.09375 -21.101562 15.492188 -21.164062 16.046875 -21.25 C 16.609375 -21.332031 17.144531 -21.375 17.65625 -21.375 C 18.1875 -21.375 18.65625 -21.332031 19.0625 -21.25 C 19.46875 -21.164062 19.804688 -21.019531 20.078125 -20.8125 C 20.359375 -20.601562 20.566406 -20.3125 20.703125 -19.9375 C 20.847656 -19.570312 20.921875 -19.085938 20.921875 -18.484375 Z M 20.921875 -7.78125 "/></g></g></g><g fill="#000b3b" fill-opacity="1"><g transform="translate(248.967046, 198.165105)"><g><path d="M 1.28125 -16.1875 C 1.125 -16.445312 0.972656 -16.796875 0.828125 -17.234375 C 0.691406 -17.671875 0.625 -18.132812 0.625 -18.625 C 0.625 -19.53125 0.828125 -20.175781 1.234375 -20.5625 C 1.640625 -20.957031 2.164062 -21.15625 2.8125 -21.15625 L 17.96875 -21.15625 C 18.125 -20.90625 18.269531 -20.554688 18.40625 -20.109375 C 18.550781 -19.671875 18.625 -19.210938 18.625 -18.734375 C 18.625 -17.828125 18.421875 -17.175781 18.015625 -16.78125 C 17.609375 -16.382812 17.082031 -16.1875 16.4375 -16.1875 L 12.578125 -16.1875 L 12.578125 -0.140625 C 12.328125 -0.0664062 11.925781 0 11.375 0.0625 C 10.832031 0.132812 10.296875 0.171875 9.765625 0.171875 C 9.234375 0.171875 8.765625 0.128906 8.359375 0.046875 C 7.953125 -0.0234375 7.609375 -0.164062 7.328125 -0.375 C 7.054688 -0.582031 6.847656 -0.875 6.703125 -1.25 C 6.566406 -1.625 6.5 -2.109375 6.5 -2.703125 L 6.5 -16.1875 Z M 1.28125 -16.1875 "/></g></g></g><g fill="#000b3b" fill-opacity="1"><g transform="translate(275.235726, 198.165105)"><g><path d="M 21.09375 -0.140625 C 20.84375 -0.0664062 20.441406 0 19.890625 0.0625 C 19.347656 0.132812 18.8125 0.171875 18.28125 0.171875 C 17.75 0.171875 17.28125 0.128906 16.875 0.046875 C 16.46875 -0.0234375 16.125 -0.164062 15.84375 -0.375 C 15.5625 -0.582031 15.351562 -0.875 15.21875 -1.25 C 15.082031 -1.625 15.015625 -2.109375 15.015625 -2.703125 L 15.015625 -8.125 L 8.34375 -8.125 L 8.34375 -0.140625 C 8.082031 -0.0664062 7.679688 0 7.140625 0.0625 C 6.597656 0.132812 6.0625 0.171875 5.53125 0.171875 C 4.988281 0.171875 4.515625 0.128906 4.109375 0.046875 C 3.710938 -0.0234375 3.375 -0.164062 3.09375 -0.375 C 2.8125 -0.582031 2.601562 -0.875 2.46875 -1.25 C 2.332031 -1.625 2.265625 -2.109375 2.265625 -2.703125 L 2.265625 -21.0625 C 2.515625 -21.101562 2.914062 -21.164062 3.46875 -21.25 C 4.03125 -21.332031 4.566406 -21.375 5.078125 -21.375 C 5.609375 -21.375 6.078125 -21.332031 6.484375 -21.25 C 6.890625 -21.164062 7.226562 -21.019531 7.5 -20.8125 C 7.78125 -20.601562 7.988281 -20.3125 8.125 -19.9375 C 8.269531 -19.570312 8.34375 -19.085938 8.34375 -18.484375 L 8.34375 -12.921875 L 15.015625 -12.921875 L 15.015625 -21.0625 C 15.265625 -21.101562 15.664062 -21.164062 16.21875 -21.25 C 16.78125 -21.332031 17.316406 -21.375 17.828125 -21.375 C 18.359375 -21.375 18.828125 -21.332031 19.234375 -21.25 C 19.640625 -21.164062 19.976562 -21.019531 20.25 -20.8125 C 20.53125 -20.601562 20.738281 -20.3125 20.875 -19.9375 C 21.019531 -19.570312 21.09375 -19.085938 21.09375 -18.484375 Z M 21.09375 -0.140625 "/></g></g></g><g clip-path="url(#dc889c4033)"><g clip-path="url(#2aa7eb7372)"><g clip-path="url(#428ee4e3c1)"><path fill="#004aad" d="M 124.628906 121.460938 C 125.246094 123.640625 123.980469 125.914062 121.800781 126.53125 C 84.585938 137.082031 62.894531 175.941406 73.445312 213.15625 C 74.0625 215.335938 72.792969 217.605469 70.613281 218.222656 C 68.433594 218.84375 66.164062 217.574219 65.546875 215.394531 C 62.660156 205.21875 61.851562 194.78125 63.148438 184.371094 C 64.402344 174.3125 67.554688 164.714844 72.511719 155.832031 C 77.46875 146.949219 83.992188 139.230469 91.890625 132.886719 C 100.070312 126.316406 109.378906 121.527344 119.554688 118.640625 C 121.738281 118.015625 124.011719 119.28125 124.628906 121.460938 Z M 124.628906 121.460938 " fill-opacity="1" fill-rule="nonzero"/></g></g></g><g clip-path="url(#14674a26bc)"><g clip-path="url(#86679977d9)"><g clip-path="url(#a492923ed5)"><path fill="#004aad" d="M 105.011719 128.554688 C 102.242188 152.710938 106.761719 170.511719 122.234375 189.484375 C 123.980469 191.6875 126.566406 194.609375 128.433594 196.75 C 127.082031 195.878906 125.761719 194.957031 124.488281 193.980469 C 104.023438 178.421875 95.605469 152.800781 105.011719 128.554688 Z M 105.011719 128.554688 " fill-opacity="1" fill-rule="nonzero"/></g></g></g><g clip-path="url(#1c1f9307fe)"><path fill="#231f20" d="M 145.828125 209.257812 C 145.816406 208.328125 145.609375 207.445312 145.210938 206.605469 C 144.808594 205.769531 144.25 205.050781 143.53125 204.457031 C 140.132812 201.28125 133.132812 199.09375 124.300781 198.171875 C 117.625 196.292969 110.820312 195.292969 103.882812 195.175781 C 88.484375 194.832031 74.722656 198.53125 68.785156 204.617188 C 67.84375 205.492188 67.105469 206.515625 66.574219 207.6875 C 66.046875 208.859375 65.765625 210.085938 65.734375 211.367188 C 64.523438 212.667969 63.859375 214.203125 63.742188 215.96875 C 63.75 216.898438 63.957031 217.78125 64.359375 218.617188 C 64.757812 219.457031 65.320312 220.175781 66.035156 220.769531 C 69.441406 223.953125 76.449219 226.144531 85.304688 227.0625 C 91.96875 228.933594 98.761719 229.929688 105.683594 230.050781 C 106.351562 230.066406 107.015625 230.074219 107.675781 230.074219 C 122.253906 230.074219 135.101562 226.429688 140.78125 220.605469 C 141.726562 219.730469 142.464844 218.707031 142.992188 217.539062 C 143.523438 216.367188 143.804688 215.140625 143.835938 213.855469 C 145.046875 212.558594 145.707031 211.023438 145.828125 209.257812 Z M 142.828125 205.207031 C 143.433594 205.703125 143.910156 206.304688 144.253906 207.007812 C 144.597656 207.710938 144.777344 208.453125 144.792969 209.234375 C 144.734375 210.386719 144.367188 211.429688 143.695312 212.367188 C 142.757812 207.484375 137.347656 203.046875 129.351562 199.894531 C 135.472656 200.988281 140.253906 202.796875 142.824219 205.207031 Z M 66.765625 211.707031 C 72.050781 205.8125 87.285156 200.582031 105.128906 199.097656 C 108.367188 198.828125 111.535156 198.699219 114.578125 198.699219 C 117.789062 198.695312 120.988281 198.851562 124.183594 199.171875 C 135.0625 202.328125 142.484375 207.644531 142.804688 213.511719 L 142.804688 213.515625 C 137.519531 219.414062 122.28125 224.648438 104.4375 226.125 C 98.074219 226.683594 91.710938 226.65625 85.351562 226.042969 C 74.492188 222.886719 67.082031 217.574219 66.765625 211.714844 Z M 69.53125 205.328125 C 75.019531 199.703125 87.582031 196.179688 101.878906 196.179688 C 102.535156 196.179688 103.195312 196.1875 103.859375 196.203125 C 108.730469 196.304688 113.554688 196.824219 118.335938 197.757812 C 113.898438 197.597656 109.464844 197.703125 105.042969 198.074219 C 87.625 199.523438 73 204.386719 66.855469 210.191406 C 67.226562 208.289062 68.121094 206.667969 69.53125 205.328125 Z M 66.746094 220.023438 C 66.136719 219.527344 65.660156 218.925781 65.316406 218.21875 C 64.972656 217.515625 64.792969 216.773438 64.773438 215.988281 C 64.835938 214.839844 65.203125 213.792969 65.875 212.855469 C 66.8125 217.730469 72.210938 222.171875 80.199219 225.324219 C 74.089844 224.230469 69.316406 222.421875 66.746094 220.023438 Z M 140.039062 219.894531 C 134.296875 225.785156 120.800781 229.375 105.710938 229.027344 C 100.84375 228.925781 96.015625 228.40625 91.238281 227.472656 C 92.496094 227.519531 93.777344 227.550781 95.085938 227.550781 C 98.132812 227.550781 101.300781 227.421875 104.53125 227.152344 C 121.945312 225.703125 136.574219 220.839844 142.71875 215.035156 C 142.34375 216.9375 141.449219 218.554688 140.039062 219.890625 Z M 140.039062 219.894531 " fill-opacity="1" fill-rule="nonzero"/></g><g clip-path="url(#c0724c83f3)"><g clip-path="url(#6d99278b85)"><g clip-path="url(#c6465d4263)"><path fill="#004aad" d="M 152.296875 134.414062 C 133.007812 159.109375 126.011719 181.722656 130.265625 212.980469 C 130.707031 216.578125 131.582031 221.527344 132.195312 225.136719 C 131.296875 223.269531 130.46875 221.367188 129.722656 219.433594 C 117.683594 188.574219 125.652344 154.75 152.296875 134.414062 Z M 152.296875 134.414062 " fill-opacity="1" fill-rule="nonzero"/></g></g></g><g clip-path="url(#e299bc0744)"><g clip-path="url(#c245ca4fd2)"><path fill="#004aad" d="M 120.121094 144.074219 L 136.789062 144.074219 L 136.789062 160.742188 L 120.121094 160.742188 Z M 120.121094 144.074219 " fill-opacity="1" fill-rule="nonzero"/></g></g><g clip-path="url(#9ab818feec)"><g clip-path="url(#9d96330624)"><path fill="#004aad" d="M 110.632812 109.378906 L 135.136719 109.378906 L 135.136719 133.882812 L 110.632812 133.882812 Z M 110.632812 109.378906 " fill-opacity="1" fill-rule="nonzero"/></g></g></svg>