<svg xmlns="http://www.w3.org/2000/svg" xmlns:xlink="http://www.w3.org/1999/xlink" width="500" zoomAndPan="magnify" viewBox="0 0 375 374.999991" height="500" preserveAspectRatio="xMidYMid meet" version="1.0"><defs><g/><clipPath id="da8de91fec"><path d="M 139 73 L 224 73 L 224 209 L 139 209 Z M 139 73 " clip-rule="nonzero"/></clipPath><clipPath id="88f5ca1289"><path d="M 144.976562 209.757812 L 114.699219 102.964844 L 221.492188 72.6875 L 251.765625 179.480469 Z M 144.976562 209.757812 " clip-rule="nonzero"/></clipPath><clipPath id="6eedff38ba"><path d="M 144.976562 209.757812 L 114.699219 102.964844 L 221.492188 72.6875 L 251.765625 179.480469 Z M 144.976562 209.757812 " clip-rule="nonzero"/></clipPath><clipPath id="88b1956cc1"><path d="M 191 87 L 229 87 L 229 180 L 191 180 Z M 191 87 " clip-rule="nonzero"/></clipPath><clipPath id="45796d0559"><path d="M 174.78125 94.9375 L 196.769531 87.386719 L 228.4375 179.601562 L 206.449219 187.152344 Z M 174.78125 94.9375 " clip-rule="nonzero"/></clipPath><clipPath id="0fd24cb0fe"><path d="M 174.78125 94.9375 L 196.769531 87.386719 L 228.4375 179.601562 L 206.449219 187.152344 Z M 174.78125 94.9375 " clip-rule="nonzero"/></clipPath><clipPath id="b109e49b30"><path d="M 141 177 L 251.765625 177 L 251.765625 224.761719 L 141 224.761719 Z M 141 177 " clip-rule="nonzero"/></clipPath><clipPath id="518752db4d"><path d="M 222 95 L 261 95 L 261 218 L 222 218 Z M 222 95 " clip-rule="nonzero"/></clipPath><clipPath id="36fc272ee1"><path d="M 231.277344 88.910156 L 260.566406 95.398438 L 233.472656 217.683594 L 204.183594 211.195312 Z M 231.277344 88.910156 " clip-rule="nonzero"/></clipPath><clipPath id="98a9b53a99"><path d="M 231.277344 88.910156 L 260.566406 95.398438 L 233.472656 217.683594 L 204.183594 211.195312 Z M 231.277344 88.910156 " clip-rule="nonzero"/></clipPath><clipPath id="d0330d418e"><path d="M 216.964844 108.390625 L 239.414062 108.390625 L 239.414062 130.835938 L 216.964844 130.835938 Z M 216.964844 108.390625 " clip-rule="nonzero"/></clipPath><clipPath id="fc88989768"><path d="M 228.1875 108.390625 C 221.992188 108.390625 216.964844 113.414062 216.964844 119.613281 C 216.964844 125.8125 221.992188 130.835938 228.1875 130.835938 C 234.386719 130.835938 239.414062 125.8125 239.414062 119.613281 C 239.414062 113.414062 234.386719 108.390625 228.1875 108.390625 Z M 228.1875 108.390625 " clip-rule="nonzero"/></clipPath><clipPath id="6cf14873a6"><path d="M 204.1875 61.664062 L 237.191406 61.664062 L 237.191406 94.667969 L 204.1875 94.667969 Z M 204.1875 61.664062 " clip-rule="nonzero"/></clipPath><clipPath id="e7aeb64f1a"><path d="M 220.6875 61.664062 C 211.578125 61.664062 204.1875 69.054688 204.1875 78.167969 C 204.1875 87.277344 211.578125 94.667969 220.6875 94.667969 C 229.800781 94.667969 237.191406 87.277344 237.191406 78.167969 C 237.191406 69.054688 229.800781 61.664062 220.6875 61.664062 Z M 220.6875 61.664062 " clip-rule="nonzero"/></clipPath></defs><g fill="#000b3b" fill-opacity="1"><g transform="translate(52.295252, 264.284337)"><g><path d="M 21.34375 -0.734375 C 21.007812 -0.410156 20.535156 -0.160156 19.921875 0.015625 C 19.316406 0.191406 18.582031 0.28125 17.71875 0.28125 C 16.863281 0.28125 16.050781 0.15625 15.28125 -0.09375 C 14.519531 -0.351562 13.894531 -0.972656 13.40625 -1.953125 L 9.96875 -8.96875 C 9.625 -9.6875 9.3125 -10.363281 9.03125 -11 C 8.757812 -11.632812 8.457031 -12.367188 8.125 -13.203125 L 7.921875 -13.171875 C 8.015625 -11.921875 8.066406 -10.644531 8.078125 -9.34375 C 8.085938 -8.050781 8.09375 -6.78125 8.09375 -5.53125 L 8.09375 -0.140625 C 7.84375 -0.0664062 7.457031 0 6.9375 0.0625 C 6.414062 0.132812 5.898438 0.171875 5.390625 0.171875 C 4.878906 0.171875 4.425781 0.132812 4.03125 0.0625 C 3.632812 0 3.304688 -0.132812 3.046875 -0.34375 C 2.796875 -0.550781 2.601562 -0.832031 2.46875 -1.1875 C 2.332031 -1.550781 2.265625 -2.023438 2.265625 -2.609375 L 2.265625 -19.984375 C 2.585938 -20.441406 3.082031 -20.785156 3.75 -21.015625 C 4.425781 -21.253906 5.144531 -21.375 5.90625 -21.375 C 6.757812 -21.375 7.570312 -21.238281 8.34375 -20.96875 C 9.125 -20.707031 9.75 -20.097656 10.21875 -19.140625 L 13.6875 -12.125 C 14.039062 -11.40625 14.351562 -10.726562 14.625 -10.09375 C 14.90625 -9.457031 15.207031 -8.722656 15.53125 -7.890625 L 15.703125 -7.921875 C 15.609375 -9.171875 15.550781 -10.421875 15.53125 -11.671875 C 15.507812 -12.921875 15.5 -14.171875 15.5 -15.421875 L 15.5 -21.0625 C 15.75 -21.125 16.132812 -21.191406 16.65625 -21.265625 C 17.175781 -21.335938 17.691406 -21.375 18.203125 -21.375 C 19.222656 -21.375 20 -21.191406 20.53125 -20.828125 C 21.070312 -20.472656 21.34375 -19.726562 21.34375 -18.59375 Z M 21.34375 -0.734375 "/></g></g></g><g fill="#000b3b" fill-opacity="1"><g transform="translate(82.837694, 264.284337)"><g><path d="M 20.921875 -7.78125 C 20.921875 -6.53125 20.707031 -5.390625 20.28125 -4.359375 C 19.851562 -3.328125 19.234375 -2.445312 18.421875 -1.71875 C 17.609375 -0.988281 16.617188 -0.425781 15.453125 -0.03125 C 14.296875 0.363281 12.988281 0.5625 11.53125 0.5625 C 10.070312 0.5625 8.765625 0.363281 7.609375 -0.03125 C 6.453125 -0.425781 5.46875 -0.988281 4.65625 -1.71875 C 3.84375 -2.445312 3.222656 -3.328125 2.796875 -4.359375 C 2.367188 -5.390625 2.15625 -6.53125 2.15625 -7.78125 L 2.15625 -21.0625 C 2.40625 -21.101562 2.804688 -21.164062 3.359375 -21.25 C 3.921875 -21.332031 4.457031 -21.375 4.96875 -21.375 C 5.5 -21.375 5.96875 -21.332031 6.375 -21.25 C 6.78125 -21.164062 7.117188 -21.019531 7.390625 -20.8125 C 7.671875 -20.601562 7.878906 -20.3125 8.015625 -19.9375 C 8.160156 -19.570312 8.234375 -19.085938 8.234375 -18.484375 L 8.234375 -7.890625 C 8.234375 -6.773438 8.539062 -5.90625 9.15625 -5.28125 C 9.769531 -4.65625 10.5625 -4.34375 11.53125 -4.34375 C 12.53125 -4.34375 13.332031 -4.65625 13.9375 -5.28125 C 14.539062 -5.90625 14.84375 -6.773438 14.84375 -7.890625 L 14.84375 -21.0625 C 15.09375 -21.101562 15.492188 -21.164062 16.046875 -21.25 C 16.609375 -21.332031 17.144531 -21.375 17.65625 -21.375 C 18.1875 -21.375 18.65625 -21.332031 19.0625 -21.25 C 19.46875 -21.164062 19.804688 -21.019531 20.078125 -20.8125 C 20.359375 -20.601562 20.566406 -20.3125 20.703125 -19.9375 C 20.847656 -19.570312 20.921875 -19.085938 20.921875 -18.484375 Z M 20.921875 -7.78125 "/></g></g></g><g fill="#000b3b" fill-opacity="1"><g transform="translate(112.858949, 264.284337)"><g><path d="M 1.28125 -16.1875 C 1.125 -16.445312 0.972656 -16.796875 0.828125 -17.234375 C 0.691406 -17.671875 0.625 -18.132812 0.625 -18.625 C 0.625 -19.53125 0.828125 -20.175781 1.234375 -20.5625 C 1.640625 -20.957031 2.164062 -21.15625 2.8125 -21.15625 L 17.96875 -21.15625 C 18.125 -20.90625 18.269531 -20.554688 18.40625 -20.109375 C 18.550781 -19.671875 18.625 -19.210938 18.625 -18.734375 C 18.625 -17.828125 18.421875 -17.175781 18.015625 -16.78125 C 17.609375 -16.382812 17.082031 -16.1875 16.4375 -16.1875 L 12.578125 -16.1875 L 12.578125 -0.140625 C 12.328125 -0.0664062 11.925781 0 11.375 0.0625 C 10.832031 0.132812 10.296875 0.171875 9.765625 0.171875 C 9.234375 0.171875 8.765625 0.128906 8.359375 0.046875 C 7.953125 -0.0234375 7.609375 -0.164062 7.328125 -0.375 C 7.054688 -0.582031 6.847656 -0.875 6.703125 -1.25 C 6.566406 -1.625 6.5 -2.109375 6.5 -2.703125 L 6.5 -16.1875 Z M 1.28125 -16.1875 "/></g></g></g><g fill="#000b3b" fill-opacity="1"><g transform="translate(139.12763, 264.284337)"><g><path d="M 8.3125 -6.8125 L 8.3125 -0.140625 C 8.050781 -0.0664062 7.648438 0 7.109375 0.0625 C 6.566406 0.132812 6.023438 0.171875 5.484375 0.171875 C 4.953125 0.171875 4.484375 0.128906 4.078125 0.046875 C 3.671875 -0.0234375 3.332031 -0.164062 3.0625 -0.375 C 2.800781 -0.582031 2.601562 -0.875 2.46875 -1.25 C 2.332031 -1.625 2.265625 -2.109375 2.265625 -2.703125 L 2.265625 -19.078125 C 2.265625 -19.566406 2.394531 -19.941406 2.65625 -20.203125 C 2.925781 -20.472656 3.289062 -20.6875 3.75 -20.84375 C 4.539062 -21.125 5.457031 -21.328125 6.5 -21.453125 C 7.539062 -21.585938 8.648438 -21.65625 9.828125 -21.65625 C 13.023438 -21.65625 15.4375 -20.984375 17.0625 -19.640625 C 18.6875 -18.296875 19.5 -16.472656 19.5 -14.171875 C 19.5 -12.742188 19.125 -11.519531 18.375 -10.5 C 17.632812 -9.476562 16.753906 -8.6875 15.734375 -8.125 C 16.578125 -6.988281 17.398438 -5.921875 18.203125 -4.921875 C 19.015625 -3.929688 19.65625 -3.03125 20.125 -2.21875 C 19.882812 -1.40625 19.457031 -0.785156 18.84375 -0.359375 C 18.238281 0.0664062 17.550781 0.28125 16.78125 0.28125 C 16.269531 0.28125 15.828125 0.222656 15.453125 0.109375 C 15.085938 -0.00390625 14.765625 -0.164062 14.484375 -0.375 C 14.210938 -0.582031 13.957031 -0.835938 13.71875 -1.140625 C 13.488281 -1.441406 13.269531 -1.769531 13.0625 -2.125 L 10.140625 -6.8125 Z M 10.5 -11.4375 C 11.375 -11.4375 12.066406 -11.660156 12.578125 -12.109375 C 13.085938 -12.554688 13.34375 -13.222656 13.34375 -14.109375 C 13.34375 -14.984375 13.054688 -15.644531 12.484375 -16.09375 C 11.921875 -16.550781 11.023438 -16.78125 9.796875 -16.78125 C 9.453125 -16.78125 9.175781 -16.769531 8.96875 -16.75 C 8.757812 -16.726562 8.523438 -16.691406 8.265625 -16.640625 L 8.265625 -11.4375 Z M 10.5 -11.4375 "/></g></g></g><g fill="#000b3b" fill-opacity="1"><g transform="translate(167.237848, 264.284337)"><g><path d="M 8.34375 -0.140625 C 8.082031 -0.0664062 7.679688 0 7.140625 0.0625 C 6.597656 0.132812 6.0625 0.171875 5.53125 0.171875 C 4.988281 0.171875 4.515625 0.128906 4.109375 0.046875 C 3.710938 -0.0234375 3.375 -0.164062 3.09375 -0.375 C 2.8125 -0.582031 2.601562 -0.875 2.46875 -1.25 C 2.332031 -1.625 2.265625 -2.109375 2.265625 -2.703125 L 2.265625 -21.0625 C 2.515625 -21.101562 2.914062 -21.164062 3.46875 -21.25 C 4.03125 -21.332031 4.566406 -21.375 5.078125 -21.375 C 5.609375 -21.375 6.078125 -21.332031 6.484375 -21.25 C 6.890625 -21.164062 7.226562 -21.019531 7.5 -20.8125 C 7.78125 -20.601562 7.988281 -20.3125 8.125 -19.9375 C 8.269531 -19.570312 8.34375 -19.085938 8.34375 -18.484375 Z M 8.34375 -0.140625 "/></g></g></g><g fill="#004aad" fill-opacity="1"><g transform="translate(184.787431, 264.284337)"><g><path d="M 13.3125 -0.140625 C 13.050781 -0.0664062 12.65625 0 12.125 0.0625 C 11.59375 0.132812 11.070312 0.171875 10.5625 0.171875 C 9.5 0.171875 8.695312 -0.00390625 8.15625 -0.359375 C 7.625 -0.722656 7.359375 -1.484375 7.359375 -2.640625 L 7.359375 -7.328125 C 6.785156 -8.191406 6.160156 -9.144531 5.484375 -10.1875 C 4.816406 -11.226562 4.15625 -12.289062 3.5 -13.375 C 2.851562 -14.46875 2.253906 -15.539062 1.703125 -16.59375 C 1.148438 -17.644531 0.695312 -18.613281 0.34375 -19.5 C 0.644531 -19.914062 1.054688 -20.296875 1.578125 -20.640625 C 2.097656 -20.984375 2.742188 -21.15625 3.515625 -21.15625 C 4.410156 -21.15625 5.140625 -20.96875 5.703125 -20.59375 C 6.273438 -20.226562 6.816406 -19.535156 7.328125 -18.515625 L 10.21875 -12.71875 L 10.421875 -12.71875 C 10.742188 -13.4375 11.023438 -14.085938 11.265625 -14.671875 C 11.515625 -15.265625 11.753906 -15.859375 11.984375 -16.453125 C 12.222656 -17.046875 12.46875 -17.660156 12.71875 -18.296875 C 12.96875 -18.929688 13.257812 -19.664062 13.59375 -20.5 C 14.007812 -20.707031 14.46875 -20.867188 14.96875 -20.984375 C 15.476562 -21.097656 15.96875 -21.15625 16.4375 -21.15625 C 17.25 -21.15625 17.9375 -20.941406 18.5 -20.515625 C 19.070312 -20.085938 19.359375 -19.445312 19.359375 -18.59375 C 19.359375 -18.3125 19.300781 -17.972656 19.1875 -17.578125 C 19.070312 -17.191406 18.800781 -16.597656 18.375 -15.796875 C 17.957031 -14.992188 17.347656 -13.910156 16.546875 -12.546875 C 15.753906 -11.179688 14.675781 -9.394531 13.3125 -7.1875 Z M 13.3125 -0.140625 "/></g></g></g><g fill="#000b3b" fill-opacity="1"><g transform="translate(211.681964, 264.284337)"><g><path d="M 1.21875 -10.5625 C 1.21875 -12.375 1.5 -13.972656 2.0625 -15.359375 C 2.632812 -16.742188 3.410156 -17.90625 4.390625 -18.84375 C 5.378906 -19.789062 6.539062 -20.503906 7.875 -20.984375 C 9.207031 -21.472656 10.648438 -21.71875 12.203125 -21.71875 C 13.753906 -21.71875 15.191406 -21.472656 16.515625 -20.984375 C 17.847656 -20.503906 19.015625 -19.789062 20.015625 -18.84375 C 21.015625 -17.90625 21.796875 -16.742188 22.359375 -15.359375 C 22.929688 -13.972656 23.21875 -12.375 23.21875 -10.5625 C 23.21875 -8.757812 22.9375 -7.15625 22.375 -5.75 C 21.820312 -4.351562 21.050781 -3.179688 20.0625 -2.234375 C 19.082031 -1.296875 17.921875 -0.582031 16.578125 -0.09375 C 15.234375 0.382812 13.773438 0.625 12.203125 0.625 C 10.617188 0.625 9.15625 0.375 7.8125 -0.125 C 6.46875 -0.625 5.3125 -1.347656 4.34375 -2.296875 C 3.375 -3.242188 2.609375 -4.410156 2.046875 -5.796875 C 1.492188 -7.191406 1.21875 -8.78125 1.21875 -10.5625 Z M 7.46875 -10.5625 C 7.46875 -8.457031 7.894531 -6.882812 8.75 -5.84375 C 9.613281 -4.800781 10.765625 -4.28125 12.203125 -4.28125 C 13.660156 -4.28125 14.816406 -4.800781 15.671875 -5.84375 C 16.523438 -6.882812 16.953125 -8.457031 16.953125 -10.5625 C 16.953125 -12.644531 16.53125 -14.207031 15.6875 -15.25 C 14.84375 -16.289062 13.691406 -16.8125 12.234375 -16.8125 C 10.796875 -16.8125 9.640625 -16.296875 8.765625 -15.265625 C 7.898438 -14.234375 7.46875 -12.664062 7.46875 -10.5625 Z M 7.46875 -10.5625 "/></g></g></g><g fill="#000b3b" fill-opacity="1"><g transform="translate(243.058314, 264.284337)"><g><path d="M 20.921875 -7.78125 C 20.921875 -6.53125 20.707031 -5.390625 20.28125 -4.359375 C 19.851562 -3.328125 19.234375 -2.445312 18.421875 -1.71875 C 17.609375 -0.988281 16.617188 -0.425781 15.453125 -0.03125 C 14.296875 0.363281 12.988281 0.5625 11.53125 0.5625 C 10.070312 0.5625 8.765625 0.363281 7.609375 -0.03125 C 6.453125 -0.425781 5.46875 -0.988281 4.65625 -1.71875 C 3.84375 -2.445312 3.222656 -3.328125 2.796875 -4.359375 C 2.367188 -5.390625 2.15625 -6.53125 2.15625 -7.78125 L 2.15625 -21.0625 C 2.40625 -21.101562 2.804688 -21.164062 3.359375 -21.25 C 3.921875 -21.332031 4.457031 -21.375 4.96875 -21.375 C 5.5 -21.375 5.96875 -21.332031 6.375 -21.25 C 6.78125 -21.164062 7.117188 -21.019531 7.390625 -20.8125 C 7.671875 -20.601562 7.878906 -20.3125 8.015625 -19.9375 C 8.160156 -19.570312 8.234375 -19.085938 8.234375 -18.484375 L 8.234375 -7.890625 C 8.234375 -6.773438 8.539062 -5.90625 9.15625 -5.28125 C 9.769531 -4.65625 10.5625 -4.34375 11.53125 -4.34375 C 12.53125 -4.34375 13.332031 -4.65625 13.9375 -5.28125 C 14.539062 -5.90625 14.84375 -6.773438 14.84375 -7.890625 L 14.84375 -21.0625 C 15.09375 -21.101562 15.492188 -21.164062 16.046875 -21.25 C 16.609375 -21.332031 17.144531 -21.375 17.65625 -21.375 C 18.1875 -21.375 18.65625 -21.332031 19.0625 -21.25 C 19.46875 -21.164062 19.804688 -21.019531 20.078125 -20.8125 C 20.359375 -20.601562 20.566406 -20.3125 20.703125 -19.9375 C 20.847656 -19.570312 20.921875 -19.085938 20.921875 -18.484375 Z M 20.921875 -7.78125 "/></g></g></g><g fill="#000b3b" fill-opacity="1"><g transform="translate(273.079569, 264.284337)"><g><path d="M 1.28125 -16.1875 C 1.125 -16.445312 0.972656 -16.796875 0.828125 -17.234375 C 0.691406 -17.671875 0.625 -18.132812 0.625 -18.625 C 0.625 -19.53125 0.828125 -20.175781 1.234375 -20.5625 C 1.640625 -20.957031 2.164062 -21.15625 2.8125 -21.15625 L 17.96875 -21.15625 C 18.125 -20.90625 18.269531 -20.554688 18.40625 -20.109375 C 18.550781 -19.671875 18.625 -19.210938 18.625 -18.734375 C 18.625 -17.828125 18.421875 -17.175781 18.015625 -16.78125 C 17.609375 -16.382812 17.082031 -16.1875 16.4375 -16.1875 L 12.578125 -16.1875 L 12.578125 -0.140625 C 12.328125 -0.0664062 11.925781 0 11.375 0.0625 C 10.832031 0.132812 10.296875 0.171875 9.765625 0.171875 C 9.234375 0.171875 8.765625 0.128906 8.359375 0.046875 C 7.953125 -0.0234375 7.609375 -0.164062 7.328125 -0.375 C 7.054688 -0.582031 6.847656 -0.875 6.703125 -1.25 C 6.566406 -1.625 6.5 -2.109375 6.5 -2.703125 L 6.5 -16.1875 Z M 1.28125 -16.1875 "/></g></g></g><g fill="#000b3b" fill-opacity="1"><g transform="translate(299.34825, 264.284337)"><g><path d="M 21.09375 -0.140625 C 20.84375 -0.0664062 20.441406 0 19.890625 0.0625 C 19.347656 0.132812 18.8125 0.171875 18.28125 0.171875 C 17.75 0.171875 17.28125 0.128906 16.875 0.046875 C 16.46875 -0.0234375 16.125 -0.164062 15.84375 -0.375 C 15.5625 -0.582031 15.351562 -0.875 15.21875 -1.25 C 15.082031 -1.625 15.015625 -2.109375 15.015625 -2.703125 L 15.015625 -8.125 L 8.34375 -8.125 L 8.34375 -0.140625 C 8.082031 -0.0664062 7.679688 0 7.140625 0.0625 C 6.597656 0.132812 6.0625 0.171875 5.53125 0.171875 C 4.988281 0.171875 4.515625 0.128906 4.109375 0.046875 C 3.710938 -0.0234375 3.375 -0.164062 3.09375 -0.375 C 2.8125 -0.582031 2.601562 -0.875 2.46875 -1.25 C 2.332031 -1.625 2.265625 -2.109375 2.265625 -2.703125 L 2.265625 -21.0625 C 2.515625 -21.101562 2.914062 -21.164062 3.46875 -21.25 C 4.03125 -21.332031 4.566406 -21.375 5.078125 -21.375 C 5.609375 -21.375 6.078125 -21.332031 6.484375 -21.25 C 6.890625 -21.164062 7.226562 -21.019531 7.5 -20.8125 C 7.78125 -20.601562 7.988281 -20.3125 8.125 -19.9375 C 8.269531 -19.570312 8.34375 -19.085938 8.34375 -18.484375 L 8.34375 -12.921875 L 15.015625 -12.921875 L 15.015625 -21.0625 C 15.265625 -21.101562 15.664062 -21.164062 16.21875 -21.25 C 16.78125 -21.332031 17.316406 -21.375 17.828125 -21.375 C 18.359375 -21.375 18.828125 -21.332031 19.234375 -21.25 C 19.640625 -21.164062 19.976562 -21.019531 20.25 -20.8125 C 20.53125 -20.601562 20.738281 -20.3125 20.875 -19.9375 C 21.019531 -19.570312 21.09375 -19.085938 21.09375 -18.484375 Z M 21.09375 -0.140625 "/></g></g></g><g fill="#004aad" fill-opacity="1"><g transform="translate(143.269156, 279.395197)"><g><path d="M 1.921875 -5.84375 C 2.035156 -5.90625 2.207031 -5.96875 2.4375 -6.03125 C 2.664062 -6.09375 2.894531 -6.125 3.125 -6.125 C 3.457031 -6.125 3.75 -6.070312 4 -5.96875 C 4.257812 -5.875 4.425781 -5.726562 4.5 -5.53125 C 4.625 -5.1875 4.753906 -4.785156 4.890625 -4.328125 C 5.023438 -3.867188 5.160156 -3.394531 5.296875 -2.90625 C 5.441406 -2.414062 5.578125 -1.929688 5.703125 -1.453125 C 5.835938 -0.984375 5.957031 -0.566406 6.0625 -0.203125 C 5.976562 -0.109375 5.859375 -0.0351562 5.703125 0.015625 C 5.546875 0.0664062 5.359375 0.09375 5.140625 0.09375 C 4.984375 0.09375 4.847656 0.078125 4.734375 0.046875 C 4.628906 0.0234375 4.539062 -0.0078125 4.46875 -0.0625 C 4.394531 -0.113281 4.335938 -0.179688 4.296875 -0.265625 C 4.253906 -0.347656 4.21875 -0.445312 4.1875 -0.5625 L 4 -1.25 L 2.203125 -1.25 C 2.148438 -1.050781 2.097656 -0.84375 2.046875 -0.625 C 1.992188 -0.414062 1.941406 -0.210938 1.890625 -0.015625 C 1.796875 0.015625 1.695312 0.0390625 1.59375 0.0625 C 1.488281 0.0820312 1.363281 0.09375 1.21875 0.09375 C 0.882812 0.09375 0.632812 0.0351562 0.46875 -0.078125 C 0.3125 -0.191406 0.234375 -0.351562 0.234375 -0.5625 C 0.234375 -0.65625 0.242188 -0.742188 0.265625 -0.828125 C 0.296875 -0.921875 0.328125 -1.03125 0.359375 -1.15625 C 0.398438 -1.34375 0.460938 -1.566406 0.546875 -1.828125 C 0.628906 -2.085938 0.71875 -2.375 0.8125 -2.6875 C 0.914062 -3 1.023438 -3.316406 1.140625 -3.640625 C 1.253906 -3.960938 1.359375 -4.265625 1.453125 -4.546875 C 1.554688 -4.835938 1.648438 -5.097656 1.734375 -5.328125 C 1.816406 -5.554688 1.878906 -5.726562 1.921875 -5.84375 Z M 3.125 -4.5625 C 3.03125 -4.28125 2.925781 -3.96875 2.8125 -3.625 C 2.695312 -3.289062 2.59375 -2.945312 2.5 -2.59375 L 3.734375 -2.59375 C 3.640625 -2.945312 3.539062 -3.296875 3.4375 -3.640625 C 3.34375 -3.984375 3.257812 -4.289062 3.1875 -4.5625 Z M 3.125 -4.5625 "/></g></g></g><g fill="#004aad" fill-opacity="1"><g transform="translate(157.461056, 279.395197)"><g><path d="M 2.375 -1.296875 C 2.445312 -1.273438 2.535156 -1.257812 2.640625 -1.25 C 2.742188 -1.25 2.84375 -1.25 2.9375 -1.25 C 3.164062 -1.25 3.375 -1.28125 3.5625 -1.34375 C 3.75 -1.40625 3.910156 -1.503906 4.046875 -1.640625 C 4.179688 -1.785156 4.285156 -1.96875 4.359375 -2.1875 C 4.441406 -2.414062 4.484375 -2.679688 4.484375 -2.984375 C 4.484375 -3.585938 4.34375 -4.039062 4.0625 -4.34375 C 3.78125 -4.644531 3.410156 -4.796875 2.953125 -4.796875 C 2.859375 -4.796875 2.765625 -4.789062 2.671875 -4.78125 C 2.578125 -4.769531 2.476562 -4.757812 2.375 -4.75 Z M 2.9375 0.15625 C 2.820312 0.15625 2.691406 0.148438 2.546875 0.140625 C 2.398438 0.140625 2.25 0.128906 2.09375 0.109375 C 1.9375 0.0859375 1.78125 0.0625 1.625 0.03125 C 1.46875 0 1.320312 -0.0390625 1.1875 -0.09375 C 0.820312 -0.226562 0.640625 -0.46875 0.640625 -0.8125 L 0.640625 -5.453125 C 0.640625 -5.597656 0.675781 -5.707031 0.75 -5.78125 C 0.832031 -5.851562 0.941406 -5.914062 1.078125 -5.96875 C 1.359375 -6.0625 1.65625 -6.117188 1.96875 -6.140625 C 2.289062 -6.171875 2.578125 -6.1875 2.828125 -6.1875 C 3.347656 -6.1875 3.816406 -6.125 4.234375 -6 C 4.660156 -5.875 5.023438 -5.679688 5.328125 -5.421875 C 5.628906 -5.160156 5.859375 -4.828125 6.015625 -4.421875 C 6.179688 -4.023438 6.265625 -3.554688 6.265625 -3.015625 C 6.265625 -2.484375 6.1875 -2.019531 6.03125 -1.625 C 5.875 -1.238281 5.644531 -0.910156 5.34375 -0.640625 C 5.050781 -0.367188 4.695312 -0.164062 4.28125 -0.03125 C 3.875 0.09375 3.425781 0.15625 2.9375 0.15625 Z M 2.9375 0.15625 "/></g></g></g><g fill="#004aad" fill-opacity="1"><g transform="translate(172.040522, 279.395197)"><g><path d="M 4.25 -0.203125 C 4.15625 -0.117188 4.007812 -0.0507812 3.8125 0 C 3.625 0.0625 3.414062 0.09375 3.1875 0.09375 C 2.90625 0.09375 2.664062 0.0507812 2.46875 -0.03125 C 2.269531 -0.113281 2.132812 -0.226562 2.0625 -0.375 C 1.988281 -0.519531 1.894531 -0.710938 1.78125 -0.953125 C 1.675781 -1.203125 1.566406 -1.472656 1.453125 -1.765625 C 1.335938 -2.066406 1.21875 -2.382812 1.09375 -2.71875 C 0.976562 -3.050781 0.863281 -3.390625 0.75 -3.734375 C 0.632812 -4.078125 0.523438 -4.414062 0.421875 -4.75 C 0.328125 -5.082031 0.242188 -5.394531 0.171875 -5.6875 C 0.265625 -5.78125 0.394531 -5.863281 0.5625 -5.9375 C 0.738281 -6.007812 0.929688 -6.046875 1.140625 -6.046875 C 1.378906 -6.046875 1.578125 -5.992188 1.734375 -5.890625 C 1.890625 -5.796875 2.003906 -5.609375 2.078125 -5.328125 C 2.253906 -4.679688 2.429688 -4.0625 2.609375 -3.46875 C 2.796875 -2.875 2.988281 -2.253906 3.1875 -1.609375 L 3.25 -1.609375 C 3.425781 -2.234375 3.609375 -2.910156 3.796875 -3.640625 C 3.984375 -4.378906 4.164062 -5.113281 4.34375 -5.84375 C 4.457031 -5.90625 4.582031 -5.953125 4.71875 -5.984375 C 4.851562 -6.023438 5.007812 -6.046875 5.1875 -6.046875 C 5.4375 -6.046875 5.644531 -5.988281 5.8125 -5.875 C 5.988281 -5.769531 6.078125 -5.59375 6.078125 -5.34375 C 6.078125 -5.195312 6.039062 -4.984375 5.96875 -4.703125 C 5.894531 -4.429688 5.800781 -4.117188 5.6875 -3.765625 C 5.582031 -3.421875 5.460938 -3.054688 5.328125 -2.671875 C 5.191406 -2.296875 5.054688 -1.941406 4.921875 -1.609375 C 4.785156 -1.273438 4.65625 -0.976562 4.53125 -0.71875 C 4.414062 -0.46875 4.320312 -0.296875 4.25 -0.203125 Z M 4.25 -0.203125 "/></g></g></g><g fill="#004aad" fill-opacity="1"><g transform="translate(186.301991, 279.395197)"><g><path d="M 2.390625 -0.046875 C 2.316406 -0.0234375 2.203125 -0.00390625 2.046875 0.015625 C 1.890625 0.0351562 1.734375 0.046875 1.578125 0.046875 C 1.421875 0.046875 1.285156 0.0351562 1.171875 0.015625 C 1.054688 -0.00390625 0.957031 -0.046875 0.875 -0.109375 C 0.800781 -0.171875 0.742188 -0.253906 0.703125 -0.359375 C 0.660156 -0.460938 0.640625 -0.601562 0.640625 -0.78125 L 0.640625 -6.015625 C 0.710938 -6.035156 0.828125 -6.054688 0.984375 -6.078125 C 1.148438 -6.097656 1.304688 -6.109375 1.453125 -6.109375 C 1.597656 -6.109375 1.726562 -6.097656 1.84375 -6.078125 C 1.96875 -6.054688 2.066406 -6.015625 2.140625 -5.953125 C 2.222656 -5.890625 2.285156 -5.804688 2.328125 -5.703125 C 2.367188 -5.597656 2.390625 -5.457031 2.390625 -5.28125 Z M 2.390625 -0.046875 "/></g></g></g><g fill="#004aad" fill-opacity="1"><g transform="translate(197.293998, 279.395197)"><g><path d="M 2.359375 -2.390625 C 2.066406 -2.492188 1.800781 -2.597656 1.5625 -2.703125 C 1.320312 -2.804688 1.113281 -2.929688 0.9375 -3.078125 C 0.769531 -3.222656 0.632812 -3.394531 0.53125 -3.59375 C 0.4375 -3.789062 0.390625 -4.035156 0.390625 -4.328125 C 0.390625 -4.890625 0.609375 -5.335938 1.046875 -5.671875 C 1.484375 -6.015625 2.09375 -6.1875 2.875 -6.1875 C 3.15625 -6.1875 3.414062 -6.164062 3.65625 -6.125 C 3.90625 -6.09375 4.117188 -6.035156 4.296875 -5.953125 C 4.472656 -5.867188 4.609375 -5.757812 4.703125 -5.625 C 4.804688 -5.5 4.859375 -5.347656 4.859375 -5.171875 C 4.859375 -5.003906 4.816406 -4.859375 4.734375 -4.734375 C 4.660156 -4.609375 4.566406 -4.503906 4.453125 -4.421875 C 4.304688 -4.515625 4.109375 -4.59375 3.859375 -4.65625 C 3.617188 -4.726562 3.351562 -4.765625 3.0625 -4.765625 C 2.757812 -4.765625 2.539062 -4.722656 2.40625 -4.640625 C 2.269531 -4.554688 2.203125 -4.453125 2.203125 -4.328125 C 2.203125 -4.234375 2.242188 -4.15625 2.328125 -4.09375 C 2.410156 -4.03125 2.539062 -3.972656 2.71875 -3.921875 L 3.234375 -3.75 C 3.859375 -3.550781 4.335938 -3.296875 4.671875 -2.984375 C 5.003906 -2.679688 5.171875 -2.265625 5.171875 -1.734375 C 5.171875 -1.171875 4.945312 -0.710938 4.5 -0.359375 C 4.0625 -0.015625 3.410156 0.15625 2.546875 0.15625 C 2.242188 0.15625 1.960938 0.128906 1.703125 0.078125 C 1.441406 0.0351562 1.210938 -0.03125 1.015625 -0.125 C 0.816406 -0.226562 0.660156 -0.347656 0.546875 -0.484375 C 0.441406 -0.628906 0.390625 -0.796875 0.390625 -0.984375 C 0.390625 -1.171875 0.445312 -1.332031 0.5625 -1.46875 C 0.675781 -1.601562 0.800781 -1.707031 0.9375 -1.78125 C 1.125 -1.632812 1.347656 -1.507812 1.609375 -1.40625 C 1.878906 -1.300781 2.175781 -1.25 2.5 -1.25 C 2.820312 -1.25 3.046875 -1.296875 3.171875 -1.390625 C 3.304688 -1.492188 3.375 -1.613281 3.375 -1.75 C 3.375 -1.882812 3.320312 -1.984375 3.21875 -2.046875 C 3.113281 -2.117188 2.960938 -2.1875 2.765625 -2.25 Z M 2.359375 -2.390625 "/></g></g></g><g fill="#004aad" fill-opacity="1"><g transform="translate(210.730642, 279.395197)"><g><path d="M 0.34375 -3.015625 C 0.34375 -3.535156 0.421875 -3.992188 0.578125 -4.390625 C 0.742188 -4.785156 0.96875 -5.117188 1.25 -5.390625 C 1.53125 -5.660156 1.863281 -5.863281 2.25 -6 C 2.632812 -6.144531 3.046875 -6.21875 3.484375 -6.21875 C 3.929688 -6.21875 4.34375 -6.144531 4.71875 -6 C 5.101562 -5.863281 5.4375 -5.660156 5.71875 -5.390625 C 6.007812 -5.117188 6.234375 -4.785156 6.390625 -4.390625 C 6.554688 -3.992188 6.640625 -3.535156 6.640625 -3.015625 C 6.640625 -2.503906 6.554688 -2.046875 6.390625 -1.640625 C 6.234375 -1.242188 6.015625 -0.910156 5.734375 -0.640625 C 5.453125 -0.367188 5.117188 -0.164062 4.734375 -0.03125 C 4.347656 0.101562 3.929688 0.171875 3.484375 0.171875 C 3.035156 0.171875 2.617188 0.101562 2.234375 -0.03125 C 1.847656 -0.175781 1.515625 -0.382812 1.234375 -0.65625 C 0.960938 -0.925781 0.742188 -1.257812 0.578125 -1.65625 C 0.421875 -2.050781 0.34375 -2.503906 0.34375 -3.015625 Z M 2.140625 -3.015625 C 2.140625 -2.410156 2.257812 -1.957031 2.5 -1.65625 C 2.75 -1.363281 3.078125 -1.21875 3.484375 -1.21875 C 3.898438 -1.21875 4.226562 -1.363281 4.46875 -1.65625 C 4.71875 -1.957031 4.84375 -2.410156 4.84375 -3.015625 C 4.84375 -3.617188 4.722656 -4.066406 4.484375 -4.359375 C 4.242188 -4.660156 3.914062 -4.8125 3.5 -4.8125 C 3.082031 -4.8125 2.75 -4.660156 2.5 -4.359375 C 2.257812 -4.066406 2.140625 -3.617188 2.140625 -3.015625 Z M 2.140625 -3.015625 "/></g></g></g><g fill="#004aad" fill-opacity="1"><g transform="translate(225.677803, 279.395197)"><g><path d="M 2.375 -1.953125 L 2.375 -0.046875 C 2.300781 -0.0234375 2.1875 -0.00390625 2.03125 0.015625 C 1.875 0.0351562 1.71875 0.046875 1.5625 0.046875 C 1.414062 0.046875 1.285156 0.0351562 1.171875 0.015625 C 1.054688 -0.00390625 0.957031 -0.046875 0.875 -0.109375 C 0.800781 -0.171875 0.742188 -0.253906 0.703125 -0.359375 C 0.660156 -0.460938 0.640625 -0.601562 0.640625 -0.78125 L 0.640625 -5.453125 C 0.640625 -5.597656 0.675781 -5.707031 0.75 -5.78125 C 0.832031 -5.851562 0.941406 -5.914062 1.078125 -5.96875 C 1.296875 -6.039062 1.554688 -6.09375 1.859375 -6.125 C 2.160156 -6.164062 2.476562 -6.1875 2.8125 -6.1875 C 3.726562 -6.1875 4.414062 -5.992188 4.875 -5.609375 C 5.34375 -5.222656 5.578125 -4.703125 5.578125 -4.046875 C 5.578125 -3.640625 5.46875 -3.289062 5.25 -3 C 5.039062 -2.707031 4.789062 -2.484375 4.5 -2.328125 C 4.738281 -2.003906 4.972656 -1.695312 5.203125 -1.40625 C 5.441406 -1.125 5.625 -0.867188 5.75 -0.640625 C 5.6875 -0.398438 5.566406 -0.21875 5.390625 -0.09375 C 5.210938 0.0195312 5.015625 0.078125 4.796875 0.078125 C 4.648438 0.078125 4.523438 0.0625 4.421875 0.03125 C 4.316406 0 4.222656 -0.046875 4.140625 -0.109375 C 4.066406 -0.171875 3.992188 -0.242188 3.921875 -0.328125 C 3.859375 -0.410156 3.796875 -0.503906 3.734375 -0.609375 L 2.90625 -1.953125 Z M 3 -3.265625 C 3.25 -3.265625 3.445312 -3.328125 3.59375 -3.453125 C 3.738281 -3.585938 3.8125 -3.78125 3.8125 -4.03125 C 3.8125 -4.28125 3.726562 -4.46875 3.5625 -4.59375 C 3.40625 -4.726562 3.148438 -4.796875 2.796875 -4.796875 C 2.703125 -4.796875 2.625 -4.789062 2.5625 -4.78125 C 2.5 -4.78125 2.429688 -4.773438 2.359375 -4.765625 L 2.359375 -3.265625 Z M 3 -3.265625 "/></g></g></g><g clip-path="url(#da8de91fec)"><g clip-path="url(#88f5ca1289)"><g clip-path="url(#6eedff38ba)"><path fill="#004aad" d="M 223.039062 77.9375 C 223.871094 80.871094 222.164062 83.929688 219.226562 84.761719 C 169.113281 98.972656 139.898438 151.304688 154.105469 201.421875 C 154.9375 204.359375 153.230469 207.417969 150.296875 208.25 C 147.359375 209.082031 144.300781 207.375 143.46875 204.4375 C 139.582031 190.734375 138.496094 176.679688 140.242188 162.65625 C 141.929688 149.109375 146.171875 136.183594 152.847656 124.222656 C 159.527344 112.261719 168.3125 101.863281 178.945312 93.320312 C 189.964844 84.472656 202.503906 78.023438 216.203125 74.136719 C 219.148438 73.292969 222.207031 75 223.039062 77.9375 Z M 223.039062 77.9375 " fill-opacity="1" fill-rule="nonzero"/></g></g></g><g clip-path="url(#88b1956cc1)"><g clip-path="url(#45796d0559)"><g clip-path="url(#0fd24cb0fe)"><path fill="#004aad" d="M 196.621094 87.460938 C 192.890625 120.011719 198.984375 144 219.828125 169.566406 C 222.183594 172.53125 225.667969 176.472656 228.183594 179.355469 C 226.363281 178.179688 224.585938 176.9375 222.863281 175.621094 C 195.292969 154.65625 183.949219 120.136719 196.621094 87.460938 Z M 196.621094 87.460938 " fill-opacity="1" fill-rule="nonzero"/></g></g></g><g clip-path="url(#b109e49b30)"><path fill="#231f20" d="M 251.496094 196.390625 C 251.480469 195.125 251.203125 193.921875 250.664062 192.78125 C 250.125 191.636719 249.375 190.660156 248.40625 189.851562 C 243.832031 185.527344 234.410156 182.550781 222.527344 181.296875 C 213.542969 178.738281 204.382812 177.375 195.050781 177.210938 C 174.324219 176.742188 155.800781 181.785156 147.8125 190.070312 C 146.542969 191.261719 145.550781 192.65625 144.835938 194.25 C 144.125 195.84375 143.746094 197.515625 143.703125 199.261719 C 142.914062 200.121094 142.289062 201.089844 141.828125 202.164062 C 141.367188 203.238281 141.097656 204.359375 141.023438 205.527344 C 141.035156 206.792969 141.3125 207.996094 141.855469 209.136719 C 142.394531 210.277344 143.144531 211.253906 144.113281 212.0625 C 148.695312 216.402344 158.128906 219.382812 170.042969 220.632812 C 179.011719 223.183594 188.152344 224.539062 197.46875 224.703125 C 198.367188 224.726562 199.261719 224.734375 200.148438 224.734375 C 219.769531 224.734375 237.0625 219.769531 244.707031 211.84375 C 245.976562 210.652344 246.96875 209.257812 247.683594 207.664062 C 248.394531 206.070312 248.773438 204.398438 248.816406 202.652344 C 249.605469 201.792969 250.230469 200.828125 250.691406 199.75 C 251.148438 198.675781 251.417969 197.554688 251.496094 196.390625 Z M 247.460938 190.871094 C 248.277344 191.546875 248.917969 192.367188 249.378906 193.324219 C 249.839844 194.28125 250.082031 195.292969 250.105469 196.359375 C 250.023438 197.925781 249.53125 199.347656 248.625 200.625 C 247.363281 193.976562 240.085938 187.929688 229.324219 183.636719 C 237.5625 185.125 243.992188 187.59375 247.457031 190.871094 Z M 145.089844 199.726562 C 152.203125 191.695312 172.710938 184.574219 196.726562 182.554688 C 201.082031 182.1875 205.34375 182.011719 209.441406 182.011719 C 213.761719 182.003906 218.070312 182.21875 222.367188 182.65625 C 237.011719 186.953125 246.996094 194.191406 247.429688 202.179688 L 247.429688 202.1875 C 240.316406 210.21875 219.808594 217.34375 195.796875 219.359375 C 187.226562 220.117188 178.664062 220.078125 170.105469 219.246094 C 155.496094 214.945312 145.515625 207.714844 145.09375 199.734375 Z M 148.816406 191.035156 C 156.203125 183.378906 173.105469 178.582031 192.347656 178.582031 C 193.234375 178.582031 194.121094 178.59375 195.015625 178.613281 C 201.570312 178.75 208.066406 179.457031 214.5 180.726562 C 208.527344 180.511719 202.5625 180.65625 196.605469 181.164062 C 173.167969 183.132812 153.480469 189.757812 145.210938 197.660156 C 145.714844 195.070312 146.914062 192.859375 148.816406 191.035156 Z M 145.066406 211.046875 C 144.246094 210.371094 143.605469 209.554688 143.144531 208.59375 C 142.679688 207.636719 142.4375 206.621094 142.414062 205.558594 C 142.496094 203.988281 142.988281 202.566406 143.894531 201.289062 C 145.152344 207.929688 152.421875 213.976562 163.171875 218.269531 C 154.949219 216.777344 148.527344 214.316406 145.066406 211.046875 Z M 243.707031 210.875 C 235.976562 218.894531 217.816406 223.785156 197.507812 223.308594 C 190.953125 223.167969 184.460938 222.464844 178.027344 221.191406 C 179.722656 221.257812 181.445312 221.296875 183.207031 221.296875 C 187.308594 221.296875 191.570312 221.121094 195.917969 220.757812 C 219.355469 218.785156 239.042969 212.164062 247.3125 204.257812 C 246.808594 206.847656 245.605469 209.050781 243.707031 210.871094 Z M 243.707031 210.875 " fill-opacity="1" fill-rule="nonzero"/></g><g clip-path="url(#518752db4d)"><g clip-path="url(#36fc272ee1)"><g clip-path="url(#98a9b53a99)"><path fill="#004aad" d="M 260.308594 95.367188 C 234.328125 128.636719 224.902344 159.097656 230.632812 201.207031 C 231.226562 206.050781 232.40625 212.722656 233.234375 217.582031 C 232.023438 215.066406 230.90625 212.507812 229.898438 209.902344 C 213.683594 168.332031 224.421875 122.761719 260.308594 95.367188 Z M 260.308594 95.367188 " fill-opacity="1" fill-rule="nonzero"/></g></g></g><g clip-path="url(#d0330d418e)"><g clip-path="url(#fc88989768)"><path fill="#004aad" d="M 216.964844 108.390625 L 239.414062 108.390625 L 239.414062 130.835938 L 216.964844 130.835938 Z M 216.964844 108.390625 " fill-opacity="1" fill-rule="nonzero"/></g></g><g clip-path="url(#6cf14873a6)"><g clip-path="url(#e7aeb64f1a)"><path fill="#004aad" d="M 204.1875 61.664062 L 237.191406 61.664062 L 237.191406 94.667969 L 204.1875 94.667969 Z M 204.1875 61.664062 " fill-opacity="1" fill-rule="nonzero"/></g></g></svg>